<?xml version="1.0" encoding="utf-8"?>
<!-- Generator: Adobe Illustrator 22.1.0, SVG Export Plug-In . SVG Version: 6.00 Build 0)  -->
<svg version="1.1" id="Layer_2" xmlns="http://www.w3.org/2000/svg" xmlns:xlink="http://www.w3.org/1999/xlink" x="0px" y="0px"
	 viewBox="0 0 194.6 244.1" style="enable-background:new 0 0 194.6 244.1;" xml:space="preserve">
<style type="text/css">
	.st0{fill:#E52643;}
</style>
<path class="st0" d="M132.8,65.1h-71c-8.9,0-16.3,7.3-16.3,16.3v101.8c0,8.9,7.3,16.3,16.3,16.3h71c8.9,0,16.3-7.3,16.3-16.3V81.3
	C149.1,72.4,141.7,65.1,132.8,65.1z M109.5,171.7c-3.6,3-7.7,5.8-12.2,8.5c-4.6-2.7-8.6-5.5-12.2-8.5c-8.9-7.4-13.4-14.6-13.4-21.7
	c0-3.5,1.4-6.5,4.2-8.9c2.7-2.3,5.8-3.5,9.3-3.5c5.3,0,9.3,2.7,12,8l0.1,0.1l0.1-0.1c2.7-5.3,6.7-8,12-8c3.6,0,6.7,1.2,9.3,3.5
	c2.8,2.4,4.2,5.4,4.2,8.9C122.9,157,118.4,164.3,109.5,171.7z M124.6,113.2c0,0.7-0.5,1.2-1.2,1.2H70.8c-0.7,0-1.2-0.5-1.2-1.2v-2.3
	c0-0.7,0.5-1.2,1.2-1.2h52.6c0.7,0,1.2,0.5,1.2,1.2V113.2z M124.6,101.9c0,0.7-0.5,1.2-1.2,1.2H70.8c-0.7,0-1.2-0.5-1.2-1.2v-2.3
	c0-0.7,0.5-1.2,1.2-1.2h52.6c0.7,0,1.2,0.5,1.2,1.2V101.9z M124.6,90.5c0,0.7-0.5,1.2-1.2,1.2H70.8c-0.7,0-1.2-0.5-1.2-1.2v-2.3
	c0-0.7,0.5-1.2,1.2-1.2h52.6c0.7,0,1.2,0.5,1.2,1.2V90.5z"/>
</svg>
