<?xml version="1.0" encoding="utf-8"?>
<!-- Generator: Adobe Illustrator 22.1.0, SVG Export Plug-In . SVG Version: 6.00 Build 0)  -->
<svg version="1.1" id="Layer_2" xmlns="http://www.w3.org/2000/svg" xmlns:xlink="http://www.w3.org/1999/xlink" x="0px" y="0px"
	 viewBox="0 0 194.6 244.1" style="enable-background:new 0 0 194.6 244.1;" xml:space="preserve">
<style type="text/css">
	.st0{fill:none;stroke:#E52643;stroke-width:4.252;stroke-miterlimit:10;}
	.st1{fill:#E52643;}
</style>
<g>
	<circle class="st0" cx="105.5" cy="114.9" r="54.3"/>
	<path class="st1" d="M64.8,163.5l4.6-4.3c0.6-0.5,0.6-1.4,0.1-2l-6.2-6.7c-0.5-0.6-1.4-0.6-2-0.1l-4.6,4.3c-0.6,0.5-1.5,0.5-2-0.1
		l-2.1-2.3c-0.5-0.6-1.4-0.6-2-0.1l-20.4,19c-0.6,0.5-0.6,1.4-0.1,2l14.4,15.5c0.5,0.6,1.4,0.6,2,0.1l20.4-19c0.6-0.5,0.6-1.4,0.1-2
		l-2.1-2.3C64.2,164.9,64.2,164,64.8,163.5z"/>
	<g>
		<path class="st1" d="M92.8,87.1c3.3-3.4,8.1-5.1,14.4-5.1c5.7,0,10.3,1.6,13.8,4.7c3.5,3.1,5.3,7,5.3,11.6c0,3.5-0.8,6.6-2.5,9.1
			c-1.7,2.5-4,4.7-6.9,6.4c-2.9,1.7-4.8,3.3-5.8,4.8c-1,1.5-1.5,3.5-1.5,5.8v2.9h-7.9v-4.1c0-3,0.7-5.5,2.2-7.7
			c1.5-2.2,3.8-4.2,6.8-6c2.6-1.6,4.5-3.2,5.6-4.8c1.1-1.6,1.7-3.6,1.7-6c0-2.8-1-5.1-3-6.9c-2-1.8-4.7-2.7-8-2.7
			c-3.4,0-6.1,0.9-8.2,2.8c-2.1,1.9-3.2,4.4-3.4,7.6h-7.7C87.7,94.6,89.5,90.5,92.8,87.1z M101.6,146.5c-1.2-1.2-1.8-2.7-1.8-4.5
			c0-1.9,0.6-3.4,1.8-4.5c1.2-1.2,2.7-1.8,4.5-1.8c1.8,0,3.3,0.6,4.5,1.8s1.7,2.7,1.7,4.5c0,1.8-0.6,3.3-1.7,4.5s-2.6,1.8-4.5,1.8
			C104.3,148.3,102.8,147.7,101.6,146.5z"/>
	</g>
</g>
</svg>
