<?xml version="1.0" encoding="utf-8"?>
<!-- Generator: Adobe Illustrator 22.1.0, SVG Export Plug-In . SVG Version: 6.00 Build 0)  -->
<svg version="1.1" id="Layer_3" xmlns="http://www.w3.org/2000/svg" xmlns:xlink="http://www.w3.org/1999/xlink" x="0px" y="0px"
	 viewBox="0 0 194.6 244.1" style="enable-background:new 0 0 194.6 244.1;" xml:space="preserve">
<style type="text/css">
	.st0{fill:none;stroke:#E52643;stroke-width:6.2126;stroke-miterlimit:10;}
	.st1{fill:none;stroke:#E52643;stroke-width:7.4551;stroke-miterlimit:10;}
	.st2{fill:#E52643;}
</style>
<g>
	<line class="st0" x1="96.7" y1="143.9" x2="150.4" y2="90.3"/>
	<circle class="st1" cx="95.9" cy="143" r="52.8"/>
	<circle class="st1" cx="95.9" cy="143" r="31.6"/>
	<circle class="st2" cx="95.9" cy="143" r="14.2"/>
	<path class="st2" d="M152.4,87.8c1.5-5,0.6-9.1-2.7-12.3c-2.2-2.2-4.9-3.3-8-3.5c-3.2-0.2-5.9,0.9-8.1,3.1
		c-4.3,4.5-5.9,11.8-4.8,21.9c0.5,4.1,1.3,8.3,2.5,12.8c4.5,1.1,8.9,1.8,12.9,2.1c10.1,0.7,17.4-1.1,21.7-5.6
		c2.1-2.2,3.1-4.9,2.8-8.2c-0.3-3.1-1.5-5.7-3.8-7.9C161.6,87,157.5,86.2,152.4,87.8l0,0.1L152.4,87.8z"/>
</g>
</svg>
