<?xml version="1.0" encoding="utf-8"?>
<!-- Generator: Adobe Illustrator 22.1.0, SVG Export Plug-In . SVG Version: 6.00 Build 0)  -->
<svg version="1.1" id="Layer_3" xmlns="http://www.w3.org/2000/svg" xmlns:xlink="http://www.w3.org/1999/xlink" x="0px" y="0px"
	 viewBox="0 0 194.6 244.1" style="enable-background:new 0 0 194.6 244.1;" xml:space="preserve">
<style type="text/css">
	.st0{fill:#E52643;}
</style>
<path class="st0" d="M147.7,165.7c-7.6-10.7-26.5,7.1-26.5,7.1s-6.2-6.4-5.7-18.3c0.4-11.9,6.4-29.8,14.1-45.7
	c7.7-15.9,11.6-23.6,10.2-26.5c-3.5-6.8-35.1-18.3-36.2-22.3c-1.1-4-4.2-18.2-5.7-18.2h-0.7c-1.5,0-4.6,14.3-5.7,18.2
	S58.7,75.5,55.2,82.3c-1.4,2.8,2.4,10.6,10.2,26.5c7.7,15.9,13.7,33.8,14.1,45.7c0.4,11.9-5.7,18.3-5.7,18.3s-18.9-17.7-26.5-7.1
	c-6.3,8.8,5.3,16.3,8.8,19.2c3.5,2.9,19.2,10.2,15.2,9.7c-4-0.4-7.3,1.1-7.7,2.2c-0.4,1.1,1.9,5.5,18.5,5.5c9.7,0,13.7-1,15.2-1.8
	l-0.1-0.2c1.4,0.9,5.2,2,15.5,2c16.6,0,19-4.4,18.5-5.5c-0.4-1.1-3.8-2.6-7.7-2.2c-4,0.4,11.7-6.8,15.2-9.7
	C142.4,182.1,153.9,174.5,147.7,165.7z M108.1,113.1l-0.1-2.2c0,0,5.3-5.8,4.8-15.7c-0.5-10-5.7-17.5-15.3-17.5
	c-9.6,0-14.8,7.5-15.3,17.5c-0.5,10,4.8,15.7,4.8,15.7l-0.1,2.2c-3,0-4.9-1-7.2-3.8c-2.4-2.8-5.2-8.7-5.7-10c-0.5-1.3-7-11.5-7-14
	s8-7.8,13-11.3c5-3.5,17.6-9.8,17.6-9.8s11.6,5.3,16.6,8.8c5,3.5,14,9.8,14,12.3s-6.5,12.7-7,14c-0.5,1.3-3.4,7.2-5.7,10
	C113,112.1,111.1,113.1,108.1,113.1z"/>
</svg>
