<?xml version="1.0" encoding="utf-8"?>
<!-- Generator: Adobe Illustrator 22.1.0, SVG Export Plug-In . SVG Version: 6.00 Build 0)  -->
<svg version="1.1" id="Layer_2" xmlns="http://www.w3.org/2000/svg" xmlns:xlink="http://www.w3.org/1999/xlink" x="0px" y="0px"
	 viewBox="0 0 194.6 244.1" style="enable-background:new 0 0 194.6 244.1;" xml:space="preserve">
<style type="text/css">
	.st0{fill:#E52643;}
	.st1{fill:none;stroke:#E52643;stroke-width:4.252;stroke-miterlimit:10;}
</style>
<g>
	<path class="st0" d="M89.4,162.1c-1.5,0-2.6-1.3-2.4-2.7c0.3-1.9,0.3-4.8-0.7-8.2c-1.3-4.4-4-7.2-5.5-8.6c-0.6-0.5-1.5-0.7-2.3-0.5
		c-2.1,0.6-6.8,1.8-12.1,1.5c-7.2-0.4-7.9-3.6-7.4-5.5s1.5-1.5,0.8-4.7c-0.8-3.2-3.6-2.8-3.2-4.9c0.1-0.3,0.2-0.6,0.3-0.8
		c0.6-0.9,0.5-2-0.1-2.8c-0.2-0.2-0.3-0.5-0.3-0.8c0-0.9,0.2-1.3,0.4-1.4c0.4-0.3,0.6-0.8,0.6-1.3c0.2-1.2,0.2-3.1-0.6-4.9
		c-1.3-2.9-6.8-3.7-7.8-4.1s-4.9-3.3,0-7.7s5.6-5,6.7-8.4s-1.6-9.2-0.7-14.7c0.9-5.5,7.7-36,44.8-36c38.2,0,42.7,32.4,42.7,40.7
		c0,13.4-10.8,29.9-14.8,35.7c-0.8,1.1-2.4,1.4-3.5,0.5l-7.1-5.9c-1.2-1-1.2-2.8,0-3.7c4.1-3.3,12-11.4,12-26.1
		c0-19.9-16.9-29.5-30.6-29.5S67.2,69.1,67.2,97.7s28.2,37.4,28.2,37.4s21.4,5.6,24.5,16c1.4,4.6,1.6,7.3,1.5,8.9
		c-0.1,1.2-1.2,2.1-2.4,2.1H89.4z"/>
	<path class="st0" d="M116.2,190.4c0,5.5-5.3,9.9-11.9,9.9c-6.6,0-11.9-4.4-11.9-9.9H116.2z"/>
	<path class="st0" d="M119.5,173.8h-30c-1.6,0-2.9-1.3-2.9-2.9l0,0c0-1.6,1.3-2.9,2.9-2.9h30c1.6,0,2.9,1.3,2.9,2.9l0,0
		C122.3,172.5,121,173.8,119.5,173.8z"/>
	<path class="st0" d="M119.5,184.9h-30c-1.6,0-2.9-1.3-2.9-2.9l0,0c0-1.6,1.3-2.9,2.9-2.9h30c1.6,0,2.9,1.3,2.9,2.9l0,0
		C122.3,183.6,121,184.9,119.5,184.9z"/>
	<path class="st1" d="M99.6,80.6c-2-4-5-6-9-6c-2.7,0-5,0.9-7,2.6c-2.1,1.8-3.1,4-3.1,6.7c0,5.3,3.3,10.8,10,16.3
		c2.7,2.2,5.7,4.4,9.2,6.4c3.4-2,6.5-4.2,9.2-6.4c6.7-5.5,10-11,10-16.3c0-2.6-1.1-4.9-3.1-6.7c-2-1.7-4.3-2.6-7-2.6c-4,0-7,2-9,6
		l-0.1,0.1L99.6,80.6z"/>
</g>
</svg>
